<svg role="img" aria-labelledby="Icon-fax-:r2e:" viewBox="0 0 24 24" xmlns="http://www.w3.org/2000/svg"
  xmlns:xlink="http://www.w3.org/1999/xlink" class="css-gd4dzf">
  <title id="Icon-fax-:r2e:">fax icon</title>
  <path fill="#005FA9"
    d="M5 21C4.16667 21 3.45833 20.7083 2.875 20.125C2.29167 19.5417 2 18.8333 2 18V11C2 10.1667 2.29167 9.45833 2.875 8.875C3.45833 8.29167 4.16667 8 5 8C5.45 8 5.8625 8.09167 6.2375 8.275C6.6125 8.45833 6.94167 8.7 7.225 9H8V6C8 5.45 8.19583 4.97917 8.5875 4.5875C8.97917 4.19583 9.45 4 10 4H16C16.55 4 17.0208 4.19583 17.4125 4.5875C17.8042 4.97917 18 5.45 18 6V9H19C19.8333 9 20.5417 9.29167 21.125 9.875C21.7083 10.4583 22 11.1667 22 12V18C22 18.55 21.8042 19.0208 21.4125 19.4125C21.0208 19.8042 20.55 20 20 20H7.225C6.94167 20.3 6.6125 20.5417 6.2375 20.725C5.8625 20.9083 5.45 21 5 21ZM5 19C5.28333 19 5.52083 18.9042 5.7125 18.7125C5.90417 18.5208 6 18.2833 6 18V11C6 10.7167 5.90417 10.4792 5.7125 10.2875C5.52083 10.0958 5.28333 10 5 10C4.71667 10 4.47917 10.0958 4.2875 10.2875C4.09583 10.4792 4 10.7167 4 11V18C4 18.2833 4.09583 18.5208 4.2875 18.7125C4.47917 18.9042 4.71667 19 5 19ZM10 9H16V6H10V9ZM8 18H20V12C20 11.7167 19.9042 11.4792 19.7125 11.2875C19.5208 11.0958 19.2833 11 19 11H8V18ZM15 14C15.2833 14 15.5208 13.9042 15.7125 13.7125C15.9042 13.5208 16 13.2833 16 13C16 12.7167 15.9042 12.4792 15.7125 12.2875C15.5208 12.0958 15.2833 12 15 12C14.7167 12 14.4792 12.0958 14.2875 12.2875C14.0958 12.4792 14 12.7167 14 13C14 13.2833 14.0958 13.5208 14.2875 13.7125C14.4792 13.9042 14.7167 14 15 14ZM18 14C18.2833 14 18.5208 13.9042 18.7125 13.7125C18.9042 13.5208 19 13.2833 19 13C19 12.7167 18.9042 12.4792 18.7125 12.2875C18.5208 12.0958 18.2833 12 18 12C17.7167 12 17.4792 12.0958 17.2875 12.2875C17.0958 12.4792 17 12.7167 17 13C17 13.2833 17.0958 13.5208 17.2875 13.7125C17.4792 13.9042 17.7167 14 18 14ZM15 17C15.2833 17 15.5208 16.9042 15.7125 16.7125C15.9042 16.5208 16 16.2833 16 16C16 15.7167 15.9042 15.4792 15.7125 15.2875C15.5208 15.0958 15.2833 15 15 15C14.7167 15 14.4792 15.0958 14.2875 15.2875C14.0958 15.4792 14 15.7167 14 16C14 16.2833 14.0958 16.5208 14.2875 16.7125C14.4792 16.9042 14.7167 17 15 17ZM18 17C18.2833 17 18.5208 16.9042 18.7125 16.7125C18.9042 16.5208 19 16.2833 19 16C19 15.7167 18.9042 15.4792 18.7125 15.2875C18.5208 15.0958 18.2833 15 18 15C17.7167 15 17.4792 15.0958 17.2875 15.2875C17.0958 15.4792 17 15.7167 17 16C17 16.2833 17.0958 16.5208 17.2875 16.7125C17.4792 16.9042 17.7167 17 18 17ZM10 17H12C12.2833 17 12.5208 16.9042 12.7125 16.7125C12.9042 16.5208 13 16.2833 13 16V13C13 12.7167 12.9042 12.4792 12.7125 12.2875C12.5208 12.0958 12.2833 12 12 12H10C9.71667 12 9.47917 12.0958 9.2875 12.2875C9.09583 12.4792 9 12.7167 9 13V16C9 16.2833 9.09583 16.5208 9.2875 16.7125C9.47917 16.9042 9.71667 17 10 17Z">
  </path>
</svg>
