<svg aria-hidden="true" viewBox="0 0 24 24" xmlns="http://www.w3.org/2000/svg"
  xmlns:xlink="http://www.w3.org/1999/xlink" class="css-gd4dzf">
  <title>person icon</title>
  <path fill="#005FA9"
    d="M12 12C10.625 12 9.44792 11.5104 8.46875 10.5312C7.48958 9.55208 7 8.375 7 7C7 5.625 7.48958 4.44792 8.46875 3.46875C9.44792 2.48958 10.625 2 12 2C13.375 2 14.5521 2.48958 15.5312 3.46875C16.5104 4.44792 17 5.625 17 7C17 8.375 16.5104 9.55208 15.5312 10.5312C14.5521 11.5104 13.375 12 12 12ZM19.5 22H4.5C3.8125 22 3.22396 21.7552 2.73438 21.2656C2.24479 20.776 2 20.1875 2 19.5V18.5C2 17.7917 2.18229 17.1406 2.54688 16.5469C2.91146 15.9531 3.39583 15.5 4 15.1875C5.29167 14.5417 6.60417 14.0573 7.9375 13.7344C9.27083 13.4115 10.625 13.25 12 13.25C13.375 13.25 14.7292 13.4115 16.0625 13.7344C17.3958 14.0573 18.7083 14.5417 20 15.1875C20.6042 15.5 21.0885 15.9531 21.4531 16.5469C21.8177 17.1406 22 17.7917 22 18.5V19.5C22 20.1875 21.7552 20.776 21.2656 21.2656C20.776 21.7552 20.1875 22 19.5 22ZM4.5 19.5H19.5V18.5C19.5 18.2708 19.4427 18.0625 19.3281 17.875C19.2135 17.6875 19.0625 17.5417 18.875 17.4375C17.75 16.875 16.6146 16.4531 15.4688 16.1719C14.3229 15.8906 13.1667 15.75 12 15.75C10.8333 15.75 9.67708 15.8906 8.53125 16.1719C7.38542 16.4531 6.25 16.875 5.125 17.4375C4.9375 17.5417 4.78646 17.6875 4.67188 17.875C4.55729 18.0625 4.5 18.2708 4.5 18.5V19.5ZM12 9.5C12.6875 9.5 13.276 9.25521 13.7656 8.76562C14.2552 8.27604 14.5 7.6875 14.5 7C14.5 6.3125 14.2552 5.72396 13.7656 5.23438C13.276 4.74479 12.6875 4.5 12 4.5C11.3125 4.5 10.724 4.74479 10.2344 5.23438C9.74479 5.72396 9.5 6.3125 9.5 7C9.5 7.6875 9.74479 8.27604 10.2344 8.76562C10.724 9.25521 11.3125 9.5 12 9.5Z">
  </path>
</svg>
