<svg aria-hidden="true" viewBox="0 0 24 24" height="24" width="24" xmlns="http://www.w3.org/2000/svg"
  xmlns:xlink="http://www.w3.org/1999/xlink" class="css-gd4dzf">
  <title>alarm icon</title>
  <path fill="#005FA9"
    d="M12.753 12.3838V8.86301C12.753 8.58591 12.6593 8.35364 12.4718 8.16619C12.2844 7.97874 12.0521 7.88502 11.775 7.88502C11.4979 7.88502 11.2657 7.97874 11.0782 8.16619C10.8908 8.35364 10.797 8.58591 10.797 8.86301V12.7505C10.797 12.8809 10.8215 13.0073 10.8704 13.1295C10.9193 13.2518 10.9926 13.3618 11.0904 13.4596L13.8288 16.198C14.0081 16.3773 14.2363 16.4669 14.5134 16.4669C14.7905 16.4669 15.0187 16.3773 15.198 16.198C15.3773 16.0187 15.467 15.7905 15.467 15.5134C15.467 15.2363 15.3773 15.0081 15.198 14.8288L12.753 12.3838ZM11.775 21.577C10.5525 21.577 9.40746 21.3447 8.33982 20.8801C7.27217 20.4156 6.34308 19.788 5.55253 18.9975C4.76198 18.2069 4.13444 17.2778 3.66989 16.2102C3.20534 15.1426 2.97307 13.9975 2.97307 12.775C2.97307 11.5525 3.20534 10.4074 3.66989 9.33979C4.13444 8.27214 4.76198 7.34305 5.55253 6.5525C6.34308 5.76195 7.27217 5.13441 8.33982 4.66986C9.40746 4.20531 10.5525 3.97304 11.775 3.97304C12.9975 3.97304 14.1426 4.20531 15.2102 4.66986C16.2779 5.13441 17.207 5.76195 17.9975 6.5525C18.7881 7.34305 19.4156 8.27214 19.8802 9.33979C20.3447 10.4074 20.577 11.5525 20.577 12.775C20.577 13.9975 20.3447 15.1426 19.8802 16.2102C19.4156 17.2778 18.7881 18.2069 17.9975 18.9975C17.207 19.788 16.2779 20.4156 15.2102 20.8801C14.1426 21.3447 12.9975 21.577 11.775 21.577ZM2.04397 7.20042C1.86467 7.02112 1.77502 6.79292 1.77502 6.51583C1.77502 6.23873 1.86467 6.01053 2.04397 5.83123L4.83126 3.04394C5.01056 2.86464 5.23876 2.77499 5.51586 2.77499C5.79295 2.77499 6.02115 2.86464 6.20045 3.04394C6.37975 3.22324 6.4694 3.45144 6.4694 3.72854C6.4694 4.00564 6.37975 4.23384 6.20045 4.41314L3.41317 7.20042C3.23387 7.37972 3.00567 7.46937 2.72857 7.46937C2.45147 7.46937 2.22327 7.37972 2.04397 7.20042ZM21.5061 7.20042C21.3268 7.37972 21.0986 7.46937 20.8215 7.46937C20.5444 7.46937 20.3162 7.37972 20.1369 7.20042L17.3496 4.41314C17.1703 4.23384 17.0806 4.00564 17.0806 3.72854C17.0806 3.45144 17.1703 3.22324 17.3496 3.04394C17.5289 2.86464 17.7571 2.77499 18.0342 2.77499C18.3113 2.77499 18.5395 2.86464 18.7188 3.04394L21.5061 5.83123C21.6854 6.01053 21.775 6.23873 21.775 6.51583C21.775 6.79292 21.6854 7.02112 21.5061 7.20042ZM11.775 19.621C13.6821 19.621 15.2999 18.9567 16.6283 17.6283C17.9568 16.2999 18.621 14.6821 18.621 12.775C18.621 10.8679 17.9568 9.25014 16.6283 7.92169C15.2999 6.59325 13.6821 5.92903 11.775 5.92903C9.86793 5.92903 8.25017 6.59325 6.92172 7.92169C5.59328 9.25014 4.92906 10.8679 4.92906 12.775C4.92906 14.6821 5.59328 16.2999 6.92172 17.6283C8.25017 18.9567 9.86793 19.621 11.775 19.621Z">
  </path>
</svg>
