<svg aria-hidden="true" viewBox="0 0 24 24" height="24" width="24" xmlns="http://www.w3.org/2000/svg"
  xmlns:xlink="http://www.w3.org/1999/xlink" class="css-gd4dzf">
  <title>barChart3 icon</title>
  <path fill="#005FA9"
    d="M19.5 22C18.8125 22 18.224 21.7552 17.7344 21.2656C17.2448 20.776 17 20.1875 17 19.5V15.75C17 15.0625 17.2448 14.474 17.7344 13.9844C18.224 13.4948 18.8125 13.25 19.5 13.25C20.1875 13.25 20.776 13.4948 21.2656 13.9844C21.7552 14.474 22 15.0625 22 15.75V19.5C22 20.1875 21.7552 20.776 21.2656 21.2656C20.776 21.7552 20.1875 22 19.5 22ZM12 22C11.3125 22 10.724 21.7552 10.2344 21.2656C9.74479 20.776 9.5 20.1875 9.5 19.5V4.5C9.5 3.8125 9.74479 3.22396 10.2344 2.73438C10.724 2.24479 11.3125 2 12 2C12.6875 2 13.276 2.24479 13.7656 2.73438C14.2552 3.22396 14.5 3.8125 14.5 4.5V19.5C14.5 20.1875 14.2552 20.776 13.7656 21.2656C13.276 21.7552 12.6875 22 12 22ZM4.5 22C3.8125 22 3.22396 21.7552 2.73438 21.2656C2.24479 20.776 2 20.1875 2 19.5V10.75C2 10.0625 2.24479 9.47396 2.73438 8.98438C3.22396 8.49479 3.8125 8.25 4.5 8.25C5.1875 8.25 5.77604 8.49479 6.26562 8.98438C6.75521 9.47396 7 10.0625 7 10.75V19.5C7 20.1875 6.75521 20.776 6.26562 21.2656C5.77604 21.7552 5.1875 22 4.5 22Z">
  </path>
</svg>
