<svg aria-hidden="true" viewBox="0 0 24 24" height="24" width="24" xmlns="http://www.w3.org/2000/svg"
  xmlns:xlink="http://www.w3.org/1999/xlink" class="css-gd4dzf">
  <title>locationPin icon</title>
  <path fill="currentColor"
    d="M12.2794 19.956C14.3838 18.0241 15.9448 16.2691 16.9625 14.6908C17.9802 13.1125 18.489 11.7111 18.489 10.4864C18.489 8.6063 17.8896 7.06684 16.6908 5.86805C15.492 4.66925 14.0216 4.06986 12.2794 4.06986C10.5373 4.06986 9.06684 4.66925 7.86805 5.86805C6.66925 7.06684 6.06986 8.6063 6.06986 10.4864C6.06986 11.7111 6.5787 13.1125 7.59638 14.6908C8.61406 16.2691 10.1751 18.0241 12.2794 19.956ZM12.2794 22C12.0379 22 11.7965 21.9569 11.555 21.8706C11.3135 21.7844 11.0979 21.655 10.9081 21.4825C9.78698 20.4476 8.79517 19.4386 7.93273 18.4554C7.07029 17.4722 6.35015 16.5192 5.77232 15.5964C5.19448 14.6736 4.75464 13.7853 4.45278 12.9314C4.15093 12.0776 4 11.2626 4 10.4864C4 7.89909 4.83226 5.83786 6.49677 4.30272C8.16128 2.76757 10.0888 2 12.2794 2C14.47 2 16.3976 2.76757 18.0621 4.30272C19.7266 5.83786 20.5589 7.89909 20.5589 10.4864C20.5589 11.2626 20.4079 12.0776 20.1061 12.9314C19.8042 13.7853 19.3644 14.6736 18.7865 15.5964C18.2087 16.5192 17.4886 17.4722 16.6261 18.4554C15.7637 19.4386 14.7719 20.4476 13.6507 21.4825C13.461 21.655 13.2454 21.7844 13.0039 21.8706C12.7624 21.9569 12.5209 22 12.2794 22ZM12.2794 12.3493C12.8486 12.3493 13.3359 12.1466 13.7413 11.7413C14.1466 11.3359 14.3493 10.8486 14.3493 10.2794C14.3493 9.71022 14.1466 9.22294 13.7413 8.81759C13.3359 8.41225 12.8486 8.20957 12.2794 8.20957C11.7102 8.20957 11.2229 8.41225 10.8176 8.81759C10.4122 9.22294 10.2096 9.71022 10.2096 10.2794C10.2096 10.8486 10.4122 11.3359 10.8176 11.7413C11.2229 12.1466 11.7102 12.3493 12.2794 12.3493Z">
  </path>
</svg>
