<svg width="24" height="24" viewBox="0 0 24 24" fill="currentColor" xmlns="http://www.w3.org/2000/svg">
  <title>Nav Search</title>
<path d="M3.02171 18.2822C2.73223 18.2822 2.48957 18.1843 2.29374 17.9885C2.09791 17.7927 2 17.55 2 17.2605C2 16.9711 2.09791 16.7284 2.29374 16.5326C2.48957 16.3367 2.73223 16.2388 3.02171 16.2388H11.1954C11.4849 16.2388 11.7275 16.3367 11.9234 16.5326C12.1192 16.7284 12.2171 16.9711 12.2171 17.2605C12.2171 17.55 12.1192 17.7927 11.9234 17.9885C11.7275 18.1843 11.4849 18.2822 11.1954 18.2822H3.02171ZM3.02171 13.1737C2.73223 13.1737 2.48957 13.0758 2.29374 12.8799C2.09791 12.6841 2 12.4415 2 12.152C2 11.8625 2.09791 11.6198 2.29374 11.424C2.48957 11.2282 2.73223 11.1303 3.02171 11.1303H6.08685C6.37633 11.1303 6.61899 11.2282 6.81482 11.424C7.01064 11.6198 7.10856 11.8625 7.10856 12.152C7.10856 12.4415 7.01064 12.6841 6.81482 12.8799C6.61899 13.0758 6.37633 13.1737 6.08685 13.1737H3.02171ZM3.02171 8.06513C2.73223 8.06513 2.48957 7.96722 2.29374 7.77139C2.09791 7.57556 2 7.33291 2 7.04342C2 6.75394 2.09791 6.51128 2.29374 6.31545C2.48957 6.11963 2.73223 6.02171 3.02171 6.02171H6.08685C6.37633 6.02171 6.61899 6.11963 6.81482 6.31545C7.01064 6.51128 7.10856 6.75394 7.10856 7.04342C7.10856 7.33291 7.01064 7.57556 6.81482 7.77139C6.61899 7.96722 6.37633 8.06513 6.08685 8.06513H3.02171ZM14.2605 15.2171C12.8472 15.2171 11.6424 14.719 10.6462 13.7229C9.65006 12.7267 9.15198 11.5219 9.15198 10.1086C9.15198 8.69519 9.65006 7.49042 10.6462 6.49425C11.6424 5.49808 12.8472 5 14.2605 5C15.6739 5 16.8787 5.49808 17.8748 6.49425C18.871 7.49042 19.3691 8.69519 19.3691 10.1086C19.3691 10.6024 19.2967 11.092 19.152 11.5773C19.0072 12.0626 18.7901 12.5096 18.5006 12.9183L21.719 16.1367C21.9063 16.324 22 16.5624 22 16.8519C22 17.1413 21.9063 17.3797 21.719 17.567C21.5317 17.7544 21.2933 17.848 21.0038 17.848C20.7143 17.848 20.4759 17.7544 20.2886 17.567L17.0702 14.3487C16.6616 14.6381 16.2146 14.8553 15.7292 15C15.2439 15.1447 14.7544 15.2171 14.2605 15.2171ZM14.2605 13.1737C15.112 13.1737 15.8357 12.8757 16.4317 12.2797C17.0277 11.6837 17.3257 10.96 17.3257 10.1086C17.3257 9.25713 17.0277 8.53342 16.4317 7.93742C15.8357 7.34142 15.112 7.04342 14.2605 7.04342C13.4091 7.04342 12.6854 7.34142 12.0894 7.93742C11.4934 8.53342 11.1954 9.25713 11.1954 10.1086C11.1954 10.96 11.4934 11.6837 12.0894 12.2797C12.6854 12.8757 13.4091 13.1737 14.2605 13.1737Z" fill="#005FA9"/>
</svg>
