<svg aria-hidden="true" viewBox="0 0 24 24" height="24" width="24" xmlns="http://www.w3.org/2000/svg"
  xmlns:xlink="http://www.w3.org/1999/xlink" class="css-gd4dzf">
  <title>phone icon</title>
  <path fill="#005FA9"
    d="M3.16667 22C2.83333 22 2.55556 21.8889 2.33333 21.6667C2.11111 21.4444 2 21.1667 2 20.8333V16.3333C2 16.0926 2.08333 15.875 2.25 15.6806C2.41667 15.4861 2.62963 15.3519 2.88889 15.2778L6.72222 14.5C6.98148 14.463 7.24537 14.4861 7.51389 14.5694C7.78241 14.6528 8 14.7778 8.16667 14.9444L10.7778 17.5556C11.4815 17.1481 12.1481 16.6991 12.7778 16.2083C13.4074 15.7176 14.0093 15.1852 14.5833 14.6111C15.1944 14.0185 15.7546 13.4028 16.2639 12.7639C16.7731 12.125 17.213 11.463 17.5833 10.7778L14.8889 8.05556C14.7407 7.90741 14.6389 7.73148 14.5833 7.52778C14.5278 7.32407 14.5185 7.07407 14.5556 6.77778L15.2778 2.88889C15.3148 2.64815 15.4352 2.43981 15.6389 2.26389C15.8426 2.08796 16.0741 2 16.3333 2H20.8333C21.1667 2 21.4444 2.11111 21.6667 2.33333C21.8889 2.55556 22 2.83333 22 3.16667C22 5.48148 21.4954 7.76852 20.4861 10.0278C19.4769 12.287 18.0463 14.3426 16.1944 16.1944C14.3426 18.0463 12.287 19.4769 10.0278 20.4861C7.76852 21.4954 5.48148 22 3.16667 22ZM18.6111 8.66667C18.9259 7.94444 19.1667 7.21296 19.3333 6.47222C19.5 5.73148 19.6296 4.98148 19.7222 4.22222H17.2778L16.7778 6.83333L18.6111 8.66667ZM8.66667 18.5556L6.83333 16.7222L4.22222 17.2778V19.7222C4.98148 19.6667 5.73148 19.537 6.47222 19.3333C7.21296 19.1296 7.94444 18.8704 8.66667 18.5556Z">
  </path>
</svg>
