<svg role="img" aria-hidden="true" aria-labelledby="Icon-chevronRightDouble-:r5:" viewBox="0 0 24 24" height="24" width="24" xmlns="http://www.w3.org/2000/svg" xmlns:xlink="http://www.w3.org/1999/xlink" class="css-djzgq2"><title>chevronRightDouble icon</title><path fill="currentColor" d="M8.32531 12.4707L2.43759 6.54497C2.15903 6.26641 2.01342 5.91821 2.00076 5.50037C1.9881 5.08253 2.13371 4.72167 2.43759 4.41779C2.71615 4.13923 3.07068 3.99995 3.50118 3.99995C3.93168 3.99995 4.28621 4.13923 4.56476 4.41779L11.5541 11.4071C11.706 11.559 11.8136 11.7236 11.8769 11.9009C11.9402 12.0782 11.9719 12.2681 11.9719 12.4707C11.9719 12.6733 11.9402 12.8632 11.8769 13.0404C11.8136 13.2177 11.706 13.3823 11.5541 13.5343L4.56476 20.5235C4.28621 20.8021 3.93801 20.9477 3.52017 20.9604C3.10233 20.973 2.74147 20.8274 2.43759 20.5235C2.15903 20.245 2.01975 19.8905 2.01975 19.46C2.01975 19.0295 2.15903 18.6749 2.43759 18.3964L8.32531 12.4707ZM18.3534 12.4707L12.4657 6.54497C12.1871 6.26641 12.0415 5.91821 12.0289 5.50037C12.0162 5.08253 12.1618 4.72167 12.4657 4.41779C12.7443 4.13923 13.0988 3.99995 13.5293 3.99995C13.9598 3.99995 14.3143 4.13923 14.5929 4.41779L21.5822 11.4071C21.7341 11.559 21.8417 11.7236 21.905 11.9009C21.9683 12.0782 22 12.2681 22 12.4707C22 12.6733 21.9683 12.8632 21.905 13.0404C21.8417 13.2177 21.7341 13.3823 21.5822 13.5343L14.5929 20.5235C14.3143 20.8021 13.9661 20.9477 13.5483 20.9604C13.1304 20.973 12.7696 20.8274 12.4657 20.5235C12.1871 20.245 12.0479 19.8905 12.0479 19.46C12.0479 19.0295 12.1871 18.6749 12.4657 18.3964L18.3534 12.4707Z"></path></svg>
