<svg aria-hidden="true" viewBox="0 0 24 24" height="24" width="24" xmlns="http://www.w3.org/2000/svg"
  xmlns:xlink="http://www.w3.org/1999/xlink" class="css-gd4dzf">
  <title>search icon</title>
  <path fill="#005FA9"
    d="M20.0682 21.6591L13.7045 15.2955C13.1364 15.75 12.483 16.1098 11.7443 16.375C11.0057 16.6402 10.2197 16.7727 9.38636 16.7727C7.32197 16.7727 5.57481 16.0578 4.14489 14.6278C2.71496 13.1979 2 11.4508 2 9.38636C2 7.32197 2.71496 5.57481 4.14489 4.14489C5.57481 2.71496 7.32197 2 9.38636 2C11.4508 2 13.1979 2.71496 14.6278 4.14489C16.0578 5.57481 16.7727 7.32197 16.7727 9.38636C16.7727 10.2197 16.6402 11.0057 16.375 11.7443C16.1098 12.483 15.75 13.1364 15.2955 13.7045L21.6875 20.0966C21.8958 20.3049 22 20.5606 22 20.8636C22 21.1667 21.8864 21.4318 21.6591 21.6591C21.4508 21.8674 21.1856 21.9716 20.8636 21.9716C20.5417 21.9716 20.2765 21.8674 20.0682 21.6591ZM9.38636 14.5C10.8068 14.5 12.0142 14.0028 13.0085 13.0085C14.0028 12.0142 14.5 10.8068 14.5 9.38636C14.5 7.96591 14.0028 6.75852 13.0085 5.7642C12.0142 4.76989 10.8068 4.27273 9.38636 4.27273C7.96591 4.27273 6.75852 4.76989 5.7642 5.7642C4.76989 6.75852 4.27273 7.96591 4.27273 9.38636C4.27273 10.8068 4.76989 12.0142 5.7642 13.0085C6.75852 14.0028 7.96591 14.5 9.38636 14.5Z">
  </path>
</svg>
