<svg aria-hidden="true" height="24" viewBox="0 0 24 24" xmlns="http://www.w3.org/2000/svg"
  xmlns:xlink="http://www.w3.org/1999/xlink" >
  <path fill="#005FA9"
    d="M2.6996 20.5379C2.52097 20.5379 2.35858 20.4933 2.21243 20.404C2.06628 20.3147 1.95261 20.1969 1.87142 20.0508C1.79022 19.9046 1.74557 19.7463 1.73745 19.5758C1.72933 19.4053 1.77399 19.2388 1.87142 19.0764L10.884 3.48717C10.9814 3.32478 11.1073 3.20299 11.2615 3.12179C11.4158 3.0406 11.5741 3 11.7365 3C11.8989 3 12.0572 3.0406 12.2115 3.12179C12.3658 3.20299 12.4916 3.32478 12.5891 3.48717L21.6016 19.0764C21.699 19.2388 21.7437 19.4053 21.7356 19.5758C21.7275 19.7463 21.6828 19.9046 21.6016 20.0508C21.5204 20.1969 21.4067 20.3147 21.2606 20.404C21.1144 20.4933 20.9521 20.5379 20.7734 20.5379H2.6996ZM4.38032 18.5893H19.0927L11.7365 5.92299L4.38032 18.5893ZM11.7365 17.615C12.0126 17.615 12.244 17.5216 12.4307 17.3348C12.6175 17.1481 12.7108 16.9167 12.7108 16.6406C12.7108 16.3646 12.6175 16.1332 12.4307 15.9464C12.244 15.7597 12.0126 15.6663 11.7365 15.6663C11.4605 15.6663 11.229 15.7597 11.0423 15.9464C10.8556 16.1332 10.7622 16.3646 10.7622 16.6406C10.7622 16.9167 10.8556 17.1481 11.0423 17.3348C11.229 17.5216 11.4605 17.615 11.7365 17.615ZM11.7365 14.692C12.0126 14.692 12.244 14.5986 12.4307 14.4118C12.6175 14.2251 12.7108 13.9937 12.7108 13.7176V10.7946C12.7108 10.5186 12.6175 10.2872 12.4307 10.1004C12.244 9.91368 12.0126 9.82031 11.7365 9.82031C11.4605 9.82031 11.229 9.91368 11.0423 10.1004C10.8556 10.2872 10.7622 10.5186 10.7622 10.7946V13.7176C10.7622 13.9937 10.8556 14.2251 11.0423 14.4118C11.229 14.5986 11.4605 14.692 11.7365 14.692Z">
  </path>
</svg>
